<svg width="32" height="32" viewBox="0 0 32 32" fill="none" xmlns="http://www.w3.org/2000/svg">
  <rect width="32" height="32" rx="4" fill="#F7DF1E"/>
  <path d="M18.5 22.5c0 2.5-1.5 3.5-3.5 3.5s-3.5-1-3.5-3.5V9h2v13.5c0 1 0.5 1.5 1.5 1.5s1.5-0.5 1.5-1.5V9h2v13.5z" fill="#000"/>
  <path d="M22 25.5c-2 0-3.5-1-4-2.5l1.5-1c0.5 1 1 1.5 2.5 1.5s2-0.5 2-1.5c0-1-0.5-1.5-2-2l-1-0.5c-1.5-0.5-2.5-1.5-2.5-3s1.5-3 3.5-3c1.5 0 2.5 0.5 3.5 1.5l-1.5 1c-0.5-0.5-1-1-2-1s-1.5 0.5-1.5 1.5c0 1 0.5 1.5 2 2l1 0.5c2 1 3 2 3 3.5s-1.5 3.5-4 3.5z" fill="#000"/>
</svg>