<svg width="32" height="32" viewBox="0 0 32 32" fill="none" xmlns="http://www.w3.org/2000/svg">
  <rect width="32" height="32" rx="4" fill="#CF649A"/>
  <path d="M16 8c-4.5 0-8 3.5-8 8 0 3.5 2 6.5 5 7.5 0.5 0.2 0.7-0.2 0.7-0.5v-1.8c-2.2 0.5-2.7-1.1-2.7-1.1-0.4-1-1-1.3-1-1.3-0.8-0.5 0.1-0.5 0.1-0.5 0.9 0.1 1.4 0.9 1.4 0.9 0.8 1.4 2.1 1 2.6 0.8 0.1-0.6 0.3-1 0.6-1.2-2-0.2-4.1-1-4.1-4.5 0-1 0.4-1.8 1-2.4-0.1-0.2-0.4-1.2 0.1-2.5 0 0 0.8-0.2 2.5 0.9 0.7-0.2 1.5-0.3 2.3-0.3s1.6 0.1 2.3 0.3c1.7-1.1 2.5-0.9 2.5-0.9 0.5 1.3 0.2 2.3 0.1 2.5 0.6 0.6 1 1.4 1 2.4 0 3.5-2.1 4.3-4.1 4.5 0.3 0.3 0.6 0.8 0.6 1.6v2.4c0 0.2 0.2 0.7 0.7 0.5 3-1 5-4 5-7.5 0-4.5-3.5-8-8-8z" fill="#fff"/>
</svg>